<svg class="logo" viewBox="0 0 47 15" version="1.1" xmlns="http://www.w3.org/2000/svg" xmlns:xlink="http://www.w3.org/1999/xlink">
  <g id="svgGroup" stroke-linecap="round" fill-rule="evenodd" font-size="9pt" stroke="#000" stroke-width="0.25mm" fill="none" style="stroke:#000;stroke-width:0.25mm;fill:black"><path d="M 58.001 5.4 L 54.501 17.4 A 33.298 33.298 0 0 0 47.569 14.193 A 38.389 38.389 0 0 0 45.801 13.65 A 35.621 35.621 0 0 0 38.568 12.374 A 31.895 31.895 0 0 0 36.401 12.3 A 25.965 25.965 0 0 0 30.007 13.058 A 21.265 21.265 0 0 0 24.751 15.15 Q 19.701 18 16.951 23.15 A 23.074 23.074 0 0 0 14.526 30.62 A 29.86 29.86 0 0 0 14.201 35.1 A 26.666 26.666 0 0 0 14.982 41.739 A 18.7 18.7 0 0 0 20.251 50.85 Q 26.301 56.6 36.801 56.6 A 51.788 51.788 0 0 0 41.577 56.389 A 41.941 41.941 0 0 0 44.601 56 L 44.601 42.2 L 36.201 42.2 L 36.201 30.5 L 57.901 30.5 L 57.901 65.1 Q 47.601 69 35.801 69 A 52.39 52.39 0 0 1 26.672 68.244 Q 21.351 67.302 16.935 65.188 A 32.988 32.988 0 0 1 16.651 65.05 Q 8.601 61.1 4.301 53.7 A 31.17 31.17 0 0 1 0.606 43.356 A 41.784 41.784 0 0 1 0.001 36.1 Q 0.001 25.4 4.551 17.2 Q 9.101 9 17.351 4.5 Q 25.601 0 36.401 0 Q 42.601 0 48.151 1.4 A 38.942 38.942 0 0 1 54.301 3.486 A 32.087 32.087 0 0 1 58.001 5.4 Z M 225.901 87.9 L 228.601 75.5 A 92.679 92.679 0 0 0 234.288 76.977 Q 240.201 78.3 244.601 78.3 A 26.15 26.15 0 0 0 247.525 78.148 Q 248.943 77.988 250.114 77.66 A 9.994 9.994 0 0 0 252.451 76.7 A 8.415 8.415 0 0 0 255.852 72.936 A 11.239 11.239 0 0 0 256.351 71.7 A 20.111 20.111 0 0 0 257.016 69.134 Q 257.551 66.408 257.692 62.648 A 66.512 66.512 0 0 0 257.701 62.4 L 257.401 62.4 Q 254.601 65.6 250.901 67.3 A 18.852 18.852 0 0 1 243.89 68.974 A 22.126 22.126 0 0 1 242.801 69 A 18.633 18.633 0 0 1 236.513 67.986 A 15.787 15.787 0 0 1 229.051 62.35 A 22.728 22.728 0 0 1 225.581 55.266 Q 224.101 50.353 224.101 43.9 A 44.439 44.439 0 0 1 224.855 35.437 Q 225.793 30.609 227.896 26.86 A 22.473 22.473 0 0 1 231.451 22.1 A 23.767 23.767 0 0 1 242.244 15.886 Q 245.969 14.841 250.412 14.645 A 47.433 47.433 0 0 1 252.501 14.6 Q 258.549 14.6 266.356 16.007 A 131.344 131.344 0 0 1 271.301 17 Q 271.454 32.772 271.49 42.565 A 1495.061 1495.061 0 0 1 271.501 48 Q 271.501 57.3 271.401 62 A 46.877 46.877 0 0 1 270.652 69.985 Q 269.845 74.281 268.173 77.656 A 21.077 21.077 0 0 1 264.251 83.2 Q 257.301 90.2 243.301 90.2 Q 234.401 90.2 225.901 87.9 Z M 117.001 46 L 83.001 46 A 15.661 15.661 0 0 0 84.179 49.752 A 11.387 11.387 0 0 0 87.601 54.05 Q 91.201 56.8 97.301 56.8 A 31.843 31.843 0 0 0 102.775 56.309 A 37.556 37.556 0 0 0 105.001 55.85 Q 109.001 54.9 112.001 53.3 L 114.301 64.6 Q 110.301 66.7 105.451 67.85 Q 100.601 69 95.601 69 Q 83.101 69 75.951 61.8 A 23.693 23.693 0 0 1 69.806 50.613 Q 68.864 46.851 68.805 42.397 A 45.131 45.131 0 0 1 68.801 41.8 A 37.476 37.476 0 0 1 69.459 34.605 A 27.944 27.944 0 0 1 71.901 27.35 Q 75.001 21.2 80.651 17.9 Q 86.301 14.6 93.901 14.6 A 27.82 27.82 0 0 1 100.986 15.451 A 19.157 19.157 0 0 1 111.101 21.8 Q 115.858 27.508 116.843 37.239 A 53.254 53.254 0 0 1 117.101 42.6 A 86.318 86.318 0 0 1 117.095 43.675 Q 117.076 45.175 117.001 46 Z M 330.001 46 L 296.001 46 A 15.661 15.661 0 0 0 297.179 49.752 A 11.387 11.387 0 0 0 300.601 54.05 Q 304.201 56.8 310.301 56.8 A 31.843 31.843 0 0 0 315.775 56.309 A 37.556 37.556 0 0 0 318.001 55.85 Q 322.001 54.9 325.001 53.3 L 327.301 64.6 Q 323.301 66.7 318.451 67.85 Q 313.601 69 308.601 69 Q 296.101 69 288.951 61.8 A 23.693 23.693 0 0 1 282.806 50.613 Q 281.864 46.851 281.805 42.397 A 45.131 45.131 0 0 1 281.801 41.8 A 37.476 37.476 0 0 1 282.459 34.605 A 27.944 27.944 0 0 1 284.901 27.35 Q 288.001 21.2 293.651 17.9 Q 299.301 14.6 306.901 14.6 A 27.82 27.82 0 0 1 313.986 15.451 A 19.157 19.157 0 0 1 324.101 21.8 Q 328.858 27.508 329.843 37.239 A 53.254 53.254 0 0 1 330.101 42.6 A 86.318 86.318 0 0 1 330.095 43.675 Q 330.076 45.175 330.001 46 Z M 188.801 67.5 L 188.801 16 L 202.901 16 L 202.901 24.4 L 203.701 24.4 A 43.46 43.46 0 0 1 205.599 21.344 Q 206.567 19.928 207.53 18.817 A 17.394 17.394 0 0 1 209.451 16.9 Q 212.301 14.5 216.601 14.5 Q 217.973 14.5 218.997 14.733 A 6.379 6.379 0 0 1 219.601 14.9 L 218.101 30.1 Q 215.501 29.4 213.901 29.4 A 9.976 9.976 0 0 0 211.77 29.618 A 7.824 7.824 0 0 0 209.851 30.3 Q 208.101 31.2 206.751 32.7 Q 205.717 33.849 204.01 35.935 A 242.603 242.603 0 0 0 202.901 37.3 L 202.901 67.5 L 188.801 67.5 Z M 144.349 68.096 A 30.356 30.356 0 0 0 151.901 69 Q 159.601 69 165.551 65.55 Q 171.501 62.1 174.751 55.85 A 27.718 27.718 0 0 0 177.137 49.362 A 34.359 34.359 0 0 0 178.001 41.5 A 35.377 35.377 0 0 0 177.675 36.628 A 27.507 27.507 0 0 0 174.751 27.4 Q 171.501 21.3 165.551 17.95 Q 159.601 14.6 151.801 14.6 A 32.548 32.548 0 0 0 147.56 14.869 A 25.711 25.711 0 0 0 138.051 18 Q 132.101 21.4 128.851 27.55 A 26.989 26.989 0 0 0 126.401 34.243 A 34.214 34.214 0 0 0 125.601 41.8 A 35.617 35.617 0 0 0 125.939 46.789 A 27.583 27.583 0 0 0 128.901 56.05 Q 132.201 62.2 138.151 65.6 A 24.857 24.857 0 0 0 144.349 68.096 Z M 151.801 56.8 A 11.337 11.337 0 0 0 156.114 56.006 A 10.509 10.509 0 0 0 160.451 52.65 Q 163.477 48.786 163.685 42.626 A 27.336 27.336 0 0 0 163.701 41.7 A 23.116 23.116 0 0 0 163.299 37.259 Q 162.558 33.476 160.451 30.85 A 10.385 10.385 0 0 0 152.876 26.842 A 13.579 13.579 0 0 0 151.801 26.8 A 11.619 11.619 0 0 0 147.557 27.548 A 10.468 10.468 0 0 0 143.151 30.85 A 14.007 14.007 0 0 0 140.571 36.092 Q 140.026 38.14 139.924 40.562 A 27.029 27.029 0 0 0 139.901 41.7 A 23.211 23.211 0 0 0 140.321 46.245 Q 141.069 49.992 143.151 52.65 A 10.308 10.308 0 0 0 150.645 56.751 A 13.196 13.196 0 0 0 151.801 56.8 Z M 257.501 47.9 L 257.401 27.8 Q 254.101 26.9 251.001 26.9 Q 244.701 26.9 241.451 31 A 13.361 13.361 0 0 0 239.258 35.207 Q 238.639 37.108 238.382 39.423 A 31.622 31.622 0 0 0 238.201 42.9 A 31.901 31.901 0 0 0 238.411 46.684 Q 238.642 48.613 239.127 50.204 A 13.129 13.129 0 0 0 240.351 53.05 Q 242.457 56.625 246.338 56.699 A 8.644 8.644 0 0 0 246.501 56.7 A 8.64 8.64 0 0 0 250.714 55.576 A 11.906 11.906 0 0 0 252.451 54.4 A 16.68 16.68 0 0 0 255.099 51.676 Q 256.143 50.341 257.076 48.683 A 29.593 29.593 0 0 0 257.501 47.9 Z M 82.901 35.4 L 103.601 35.4 A 12.056 12.056 0 0 0 102.966 32.209 A 9.15 9.15 0 0 0 100.601 28.55 A 9.111 9.111 0 0 0 96.099 26.262 A 13.229 13.229 0 0 0 93.401 26 A 12.107 12.107 0 0 0 90.163 26.413 A 9.25 9.25 0 0 0 86.351 28.5 A 10.38 10.38 0 0 0 83.581 32.717 A 14.52 14.52 0 0 0 82.901 35.4 Z M 295.901 35.4 L 316.601 35.4 A 12.056 12.056 0 0 0 315.966 32.209 A 9.15 9.15 0 0 0 313.601 28.55 A 9.111 9.111 0 0 0 309.099 26.262 A 13.229 13.229 0 0 0 306.401 26 A 12.107 12.107 0 0 0 303.163 26.413 A 9.25 9.25 0 0 0 299.351 28.5 A 10.38 10.38 0 0 0 296.581 32.717 A 14.52 14.52 0 0 0 295.901 35.4 Z" id="George"></path>

  </g>
</svg>
