<svg width="301.502" height="87.701" viewBox="0 0 301.502 87.701" xmlns="http://www.w3.org/2000/svg"><g id="svgGroup" stroke-linecap="round" fill-rule="evenodd" font-size="9pt" stroke="#000" stroke-width="0.25mm" fill="none" style="stroke:#000;stroke-width:0.25mm;fill:none"><path d="M 32.002 31.501 L 54.102 31.501 L 54.102 63.601 Q 46.202 69.401 34.102 69.401 A 41.641 41.641 0 0 1 23.198 68.045 A 30.748 30.748 0 0 1 9.352 60.151 A 30.601 30.601 0 0 1 1.008 44.629 A 45.419 45.419 0 0 1 0.002 34.801 A 41.325 41.325 0 0 1 1.615 22.987 A 32.713 32.713 0 0 1 9.152 9.801 A 30.101 30.101 0 0 1 31 0.022 A 39.052 39.052 0 0 1 32.302 0.001 A 49.571 49.571 0 0 1 40.636 0.662 Q 47.089 1.763 51.902 4.701 L 51.902 11.601 A 29.377 29.377 0 0 0 39.864 6.755 A 39.69 39.69 0 0 0 33.102 6.201 A 28.96 28.96 0 0 0 23.92 7.598 A 24.259 24.259 0 0 0 13.852 14.051 Q 6.402 21.901 6.402 34.801 A 38.604 38.604 0 0 0 7.276 43.265 Q 8.945 50.696 13.802 55.651 A 24.411 24.411 0 0 0 26.186 62.368 A 36.488 36.488 0 0 0 34.202 63.201 A 32.625 32.625 0 0 0 41.903 62.326 A 26.725 26.725 0 0 0 47.902 60.101 L 47.902 37.001 L 32.002 37.001 L 32.002 31.501 Z M 241.302 26.801 L 241.302 17.901 L 247.402 17.901 L 247.402 64.701 A 33.888 33.888 0 0 1 246.798 71.317 Q 246.039 75.125 244.326 78.049 A 17.042 17.042 0 0 1 241.202 81.951 A 21.25 21.25 0 0 1 229.737 87.363 A 29.416 29.416 0 0 1 225.202 87.701 A 43.622 43.622 0 0 1 218.562 87.222 Q 214.91 86.659 211.851 85.434 A 25.17 25.17 0 0 1 210.402 84.801 L 210.402 78.801 Q 216.602 81.901 224.702 81.901 A 22.573 22.573 0 0 0 229.764 81.365 Q 233.919 80.409 236.802 77.751 A 12.678 12.678 0 0 0 240.105 72.616 Q 241.302 69.29 241.302 64.701 L 241.302 58.101 A 19.825 19.825 0 0 1 237.258 63.348 Q 232.769 67.401 226.102 67.401 A 19.731 19.731 0 0 1 211.636 61.399 A 24.589 24.589 0 0 1 211.152 60.901 A 21.757 21.757 0 0 1 205.796 50.685 A 32.39 32.39 0 0 1 205.002 43.301 Q 205.002 31.901 210.652 24.501 A 19.07 19.07 0 0 1 216.444 19.346 Q 220.434 17.101 225.502 17.101 A 19.018 19.018 0 0 1 232.407 18.293 Q 237.227 20.156 240.245 24.932 A 22.391 22.391 0 0 1 241.302 26.801 Z M 105.002 59.901 L 105.002 66.101 Q 99.002 69.101 91.002 69.101 Q 79.702 69.101 72.652 62.051 Q 65.602 55.001 65.602 43.501 A 38.777 38.777 0 0 1 66.334 35.728 Q 67.307 30.976 69.57 27.308 A 21.751 21.751 0 0 1 71.802 24.301 A 20.279 20.279 0 0 1 86.641 17.33 A 27.027 27.027 0 0 1 87.902 17.301 A 22.885 22.885 0 0 1 94.526 18.213 A 17.68 17.68 0 0 1 102.702 23.401 Q 107.511 28.735 108.115 37.892 A 41.176 41.176 0 0 1 108.202 40.601 A 47.324 47.324 0 0 1 108.163 42.589 Q 108.082 44.49 107.837 45.815 A 13.03 13.03 0 0 1 107.802 46.001 L 72.002 46.001 Q 72.702 54.401 77.802 58.851 A 17.472 17.472 0 0 0 85.466 62.675 Q 88.11 63.291 91.203 63.301 A 31.599 31.599 0 0 0 91.302 63.301 A 35.313 35.313 0 0 0 96.786 62.901 Q 101.65 62.135 105.002 59.901 Z M 298.302 59.901 L 298.302 66.101 Q 292.302 69.101 284.302 69.101 Q 273.002 69.101 265.952 62.051 Q 258.902 55.001 258.902 43.501 A 38.777 38.777 0 0 1 259.634 35.728 Q 260.607 30.976 262.87 27.308 A 21.751 21.751 0 0 1 265.102 24.301 A 20.279 20.279 0 0 1 279.941 17.33 A 27.027 27.027 0 0 1 281.202 17.301 A 22.885 22.885 0 0 1 287.826 18.213 A 17.68 17.68 0 0 1 296.002 23.401 Q 300.811 28.735 301.415 37.892 A 41.176 41.176 0 0 1 301.502 40.601 A 47.324 47.324 0 0 1 301.463 42.589 Q 301.382 44.49 301.137 45.815 A 13.03 13.03 0 0 1 301.102 46.001 L 265.302 46.001 Q 266.002 54.401 271.102 58.851 A 17.472 17.472 0 0 0 278.766 62.675 Q 281.41 63.291 284.503 63.301 A 31.599 31.599 0 0 0 284.602 63.301 A 35.313 35.313 0 0 0 290.086 62.901 Q 294.95 62.135 298.302 59.901 Z M 133.114 68.372 A 24.98 24.98 0 0 0 140.802 69.501 A 29.861 29.861 0 0 0 144.797 69.242 A 20.812 20.812 0 0 0 158.252 62.151 A 25.127 25.127 0 0 0 163.513 52.181 A 32.978 32.978 0 0 0 164.602 43.501 A 36.2 36.2 0 0 0 164.107 37.401 A 26.332 26.332 0 0 0 158.352 24.651 A 19.919 19.919 0 0 0 148.271 18.163 A 27.43 27.43 0 0 0 140.802 17.201 A 26.768 26.768 0 0 0 139.216 17.247 A 20.88 20.88 0 0 0 124.002 24.801 A 26.152 26.152 0 0 0 118.883 34.012 A 31.357 31.357 0 0 0 117.502 43.501 A 35.414 35.414 0 0 0 117.871 48.703 A 26.123 26.123 0 0 0 123.802 62.101 A 20.141 20.141 0 0 0 133.114 68.372 Z M 176.702 17.901 L 182.802 17.901 L 182.802 26.501 A 17.35 17.35 0 0 1 186.182 21.454 Q 189.674 17.917 195.065 17.392 A 19.982 19.982 0 0 1 197.002 17.301 A 8.222 8.222 0 0 1 197.405 17.312 Q 197.966 17.341 198.897 17.436 A 71.629 71.629 0 0 1 199.502 17.501 L 199.502 23.701 Q 197.502 23.101 195.502 23.101 A 9.869 9.869 0 0 0 188.322 26.173 A 15.617 15.617 0 0 0 186.452 28.451 Q 182.802 33.801 182.802 40.301 L 182.802 68.601 L 176.702 68.601 L 176.702 17.901 Z M 140.802 23.001 A 16.667 16.667 0 0 0 135.046 23.953 A 14.38 14.38 0 0 0 128.402 29.001 Q 123.902 35.001 123.902 43.501 A 24.728 24.728 0 0 0 125.063 51.21 A 21.243 21.243 0 0 0 128.552 57.751 A 15.366 15.366 0 0 0 133.844 62.166 Q 136.942 63.701 140.802 63.701 A 18.793 18.793 0 0 0 146.391 62.912 A 14.432 14.432 0 0 0 153.652 57.851 A 21.41 21.41 0 0 0 157.917 47.585 A 28.421 28.421 0 0 0 158.202 43.501 A 29.715 29.715 0 0 0 157.492 36.838 A 21.413 21.413 0 0 0 153.902 28.851 A 13.871 13.871 0 0 0 145.159 23.413 A 21.762 21.762 0 0 0 140.802 23.001 Z M 226.202 61.601 A 14.151 14.151 0 0 0 234.728 58.719 A 19.323 19.323 0 0 0 236.602 57.151 Q 241.302 52.701 241.302 43.501 A 38.914 38.914 0 0 0 240.915 37.816 Q 239.983 31.521 236.802 27.951 Q 232.302 22.901 226.702 22.901 A 14.413 14.413 0 0 0 221.245 23.897 Q 217.977 25.221 215.651 28.3 A 16.638 16.638 0 0 0 215.502 28.501 A 20.279 20.279 0 0 0 212.215 35.729 Q 211.402 39.037 211.402 43.001 A 28.859 28.859 0 0 0 211.851 48.263 Q 212.407 51.257 213.651 53.6 A 14.243 14.243 0 0 0 216.002 56.851 A 17.549 17.549 0 0 0 219.583 59.739 A 12.692 12.692 0 0 0 226.202 61.601 Z M 72.002 40.401 L 101.902 40.401 L 101.902 38.101 A 20.015 20.015 0 0 0 101.383 33.411 A 13.723 13.723 0 0 0 98.052 27.101 A 12.764 12.764 0 0 0 90.419 23.197 A 18.132 18.132 0 0 0 87.702 23.001 A 14.944 14.944 0 0 0 81.66 24.197 A 14.365 14.365 0 0 0 77.002 27.501 Q 73.297 31.378 72.264 38.15 A 33.269 33.269 0 0 0 72.002 40.401 Z M 265.302 40.401 L 295.202 40.401 L 295.202 38.101 A 20.015 20.015 0 0 0 294.683 33.411 A 13.723 13.723 0 0 0 291.352 27.101 A 12.764 12.764 0 0 0 283.719 23.197 A 18.132 18.132 0 0 0 281.002 23.001 A 14.944 14.944 0 0 0 274.96 24.197 A 14.365 14.365 0 0 0 270.302 27.501 Q 266.597 31.378 265.564 38.15 A 33.269 33.269 0 0 0 265.302 40.401 Z" vector-effect="non-scaling-stroke"/></g></svg>
